# xmcd
#
# Track frame offsets: 
#        150
#        15626
#        18324
#        33559
#        48087
#        66247
#        79613
#        95320
#        111470
#        132947
#        148421
#        168801
#
# Disc length: 2492 seconds
#
# Revision: 0
# Processed by: cddbd v1.5.2PL0 Copyright (c) Steve Scherf et al.
# Submitted via: ExactAudioCopy v1.0b4
#
DISCID=9b09ba0c
DTITLE=Brutha White - Solitaire Man Blues
DYEAR=2016
DGENRE=Blues
TTITLE0=On My Own
TTITLE1=New Blues News Intro
TTITLE2=Chasing Jane
TTITLE3=PO Folks
TTITLE4=My House
TTITLE5=My Ole Lady
TTITLE6=Young Man Blues
TTITLE7=Solitaire Man
TTITLE8=Song to Myself
TTITLE9=Runnin'
TTITLE10=Simplify That
TTITLE11=Growin Pains
EXTD=
EXTT0=
EXTT1=
EXTT2=
EXTT3=
EXTT4=
EXTT5=
EXTT6=
EXTT7=
EXTT8=
EXTT9=
EXTT10=
EXTT11=
PLAYORDER=
